<?xml version="1.0" encoding="UTF-8"?>
<svg id="logosandtypes_com" data-name="logosandtypes com" xmlns="http://www.w3.org/2000/svg" xmlns:xlink="http://www.w3.org/1999/xlink" viewBox="0 0 150 150">
  <defs>
    <style>
      .cls-1 {
        fill: none;
      }

      .cls-2 {
        fill: url(#linear-gradient);
      }
    </style>
    <linearGradient id="linear-gradient" x1="112.9" y1="121.26" x2="41.3" y2="45.98" gradientUnits="userSpaceOnUse">
      <stop offset="0" stop-color="#feb101"/>
      <stop offset=".24" stop-color="#f3194b"/>
      <stop offset=".56" stop-color="#e8449a"/>
      <stop offset=".97" stop-color="#0570d2"/>
    </linearGradient>
  </defs>
  <path class="cls-1" d="M0,0H150V150H0V0Z"/>
  <path class="cls-2" d="M133.91,86.76c-.27-10.41-5.91-20.07-14.01-26.38C143.65-5.7,35.54-15.01,30.96,98.77c-.71-.71-1.36-1.52-2.03-2.3-.66-.83-1.35-1.61-2-2.46,0,0-.07-.09-.09-.12-3.77-4.67-7.05-9.73-9.78-15.1l-12.1,6.85c6.22,11.96,14.74,22.64,24.76,31.61-.26,5.98-.46,12.56-.59,18.79l13.8,.29c.07-3,.15-5.99,.25-8.95,39.24,25.71,91.87,7.24,90.71-40.63Zm-36.02,35.37c-18.2,7.32-39.05,.45-53.96-11.21h-.01c1.07-21,4.42-46.19,14.45-62.82,7.23-12.63,17.77-20.69,28.96-22.12,18.27-2.08,27.09,11.57,20.39,27.47-18.61-8.77-50.16-2.23-49.03,20.72,.3,18.76,20.47,24.68,35.37,15.46,7.3-4.33,13.68-10.08,18.77-16.93,12.29,10.43,10.6,38.06-14.95,49.43Zm-19.58-56.44c7.07-3.04,15.11-2.26,22.26,.11-8.85,10.51-16.33,14.08-21.34,14.08-8.05,0-9.83-9.24-.91-14.19h-.01Z"/>
</svg>