<svg id="logosandtypes_com" data-name="logosandtypes com" xmlns="http://www.w3.org/2000/svg" viewBox="0 0 150 150"><defs><style>.cls-1{fill:none;}.cls-2{fill:#ffcf00;}</style></defs><g id="Layer_2" data-name="Layer 2"><path id="Layer_3" data-name="Layer 3" class="cls-1" d="M0,.2H150v150H0Z" transform="translate(0 -0.2)"/></g><circle class="cls-2" cx="75.27" cy="74.78" r="63.25"/><g id="Layer_1-2" data-name="Layer 1-2"><path d="M97.93,71.47,78.86,60.57V38.69a3.66,3.66,0,0,0-5.51-3.2l-20.72,12a3.67,3.67,0,0,0-1.84,3.18V98.7a3.65,3.65,0,0,0,1.84,3.17l20.71,12a3.67,3.67,0,0,0,3.68,0l20.91-12.07a3.7,3.7,0,0,0,1.83-3.19V74.66A3.7,3.7,0,0,0,97.93,71.47Zm-5.5,25-17.23,10L58.14,96.58V52.76L71.51,45V64.82l20.92,12Z" transform="translate(0 -0.2)"/></g></svg>