<svg id="logosandtypes_com" xmlns="http://www.w3.org/2000/svg" viewBox="0 0 150 150"><path d="M0 0h150v150H0V0z" fill="none"/><path d="M49.5 128c0 3.4 3.7 7.1 7.1 7.1h34.6c3.4 0 7.1-3.7 7.1-7.1V85.5c-3.2-1.3-5.4-4.4-5.4-7.9V33.5c.1-1.8-.3-3.6-1.1-5.3-.4-.6-.9-1.1-1.5-1.5-.7-.3-1.4-.4-2.2-.3-.9.3-1.8.7-2.5 1.3-.4.2-.8.5-1.1.9-.9 1.1-1.3 2.5-1.2 3.9v61.2c0 4.7-2.8 7.6-7.6 7.6h-2.2c-4.7 0-7.6-2.8-7.6-7.6V32.4c.1-1.4-.4-2.8-1.2-3.9-.6-.7-1.3-1.4-2.1-1.9-.5-.2-1-.3-1.5-.3-.7 0-1.5.1-2.1.3-.6.4-1.1.9-1.5 1.5-.8 1.7-1.1 3.5-1.1 5.3v84.7c0 4.2-3.1 7.7-7.2 8.4l.3 1.5z" fill="#fdd312"/><path d="M109.6 22c-1.1-2.8-2.7-5.3-4.8-7.3-2.1-2.1-4.6-3.8-7.4-4.9-3-1.2-6.1-1.8-9.3-1.7-3.1 0-6.2.6-9.1 1.7-1.5.6-2.9 1.4-4.2 2.4-1.3-.9-2.7-1.7-4.2-2.4-2.9-1.2-6-1.8-9.1-1.7-3.2 0-6.3.6-9.3 1.7-2.8 1.1-5.3 2.8-7.4 4.9-2.1 2.1-3.7 4.6-4.8 7.3-1.1 2.9-1.7 5.9-1.7 9v87.2c0 3.3 1.9 6.3 4.9 7.7v2.1c0 7.4 6 13.4 13.4 13.4h34.6c7.4 0 13.4-6 13.4-13.4V85.8c3.9-.9 6.6-4.4 6.6-8.3V31c.1-3.1-.4-6.1-1.6-9zm-52 96.2V33.5c-.1-1.8.3-3.6 1.1-5.3.2-.2.2-.3.5-.5.7-.3 1.4-.4 2.1-.3.5 0 1 .1 1.5.3.4.2.8.5 1.1.9.9 1.1 1.3 2.5 1.2 3.9v61.2c0 4.7 3.8 8.6 8.6 8.6h2.2c4.7 0 8.6-3.8 8.6-8.6V32.4c-.1-1.4.4-2.8 1.2-3.9.2-.4.6-.7 1-.9.5-.2 1-.3 1.5-.3.7 0 1.5.1 2.1.3.3.2.4.3.5.5.8 1.7 1.1 3.5 1.1 5.3v44c0 3.5 2.1 6.6 5.3 7.9v42.5c0 3.4-2.7 6.1-6.1 6.1H56.6c-3.4 0-6.1-2.7-6.1-6.1v-1.4c4.1-.5 7.2-4.1 7.1-8.2zM104 77.5c0 .7-.6 1.2-1.2 1.2h-2.2c-.7 0-1.2-.6-1.2-1.2v-44c.1-3-.6-6-1.9-8.7-.3-.5-.6-.9-.9-1.3l-.1-.1c-.4-.4-.7-.8-1.2-1.1-.6-.4-1.2-.8-1.8-1.1-1.7-.7-3.5-1.1-5.3-1.1-1.6 0-3.2.3-4.6 1-.8.4-1.6 1-2.3 1.6-.5.4-1 .9-1.4 1.4-1.9 2.3-2.9 5.2-2.9 8.2v61.4c0 .7-.6 1.2-1.2 1.2h-2.2c-.7 0-1.2-.6-1.2-1.2V32.4c.1-3-.9-6-2.8-8.3-.4-.5-.9-1-1.4-1.4-.7-.6-1.5-1.2-2.3-1.6-3.2-1.4-6.7-1.3-9.9.1-.6.3-1.3.7-1.8 1.1-.4.3-.8.7-1.2 1.1l-.1.1c-.4.4-.7.8-.9 1.3-1.3 2.7-2 5.7-1.9 8.7v84.7c0 .7-.6 1.2-1.2 1.2h-2.2c-.7 0-1.2-.6-1.2-1.2V31c0-2.1.4-4.3 1.2-6.3.7-1.8 1.8-3.5 3.2-4.9 1.4-1.4 3.1-2.5 5-3.3 2.1-.8 4.3-1.2 6.6-1.2 2.1 0 4.3.4 6.3 1.1 1.7.7 3.2 1.7 4.5 3 1.4 1.3 3.6 1.3 5 0 1.3-1.3 2.9-2.3 4.5-3 4.2-1.6 8.8-1.5 12.9.1 1.9.7 3.6 1.9 5 3.3s2.5 3 3.2 4.9c.8 2 1.2 4.1 1.2 6.3l-.1 46.5z" fill="#010101"/></svg>