<?xml version="1.0" encoding="UTF-8"?>
<svg id="logosandtypes_com" data-name="logosandtypes com" xmlns="http://www.w3.org/2000/svg" viewBox="0 0 150 150">
  <defs>
    <style>
      .cls-1 {
        fill: #ffc971;
      }

      .cls-2 {
        fill: #093759;
      }

      .cls-3 {
        fill: none;
      }

      .cls-4 {
        fill: #4ecdc4;
      }

      .cls-5 {
        fill: #ff2d55;
      }
    </style>
  </defs>
  <path class="cls-3" d="M0,0H150V150H0V0Z"/>
  <path class="cls-2" d="M110.07,98.28c0-6.54-2.81-12.44-7.28-16.56,3.15-5.06,6.4-10.31,9.66-15.2,29.86,23.24,13.42,72.07-24.89,72.12h0s-54.4,.01-54.4,.01c-1.92,0-3.48-1.56-3.48-3.48v-37.1c5.96-1.5,11.91-1.5,17.86,0v22.72s40.01,0,40.01,0c12.41,0,22.51-10.1,22.51-22.51Z"/>
  <path class="cls-5" d="M114.72,53.68c-.04,4.39-.8,8.6-2.16,12.54,1.35-3.93,2.1-8.13,2.14-12.51-5.51,2.14-11.53,2.03-17.95,.14,.31-12.3-9.96-23.09-22.63-23.08,0,0-26.59,0-26.59,0,0,.61,0,31.2,0,31.2,0,0-11.91,9.27-14.97,16.18-1.92-3.79-2.99-8.07-2.99-12.6V18.45c0-3.06,2.48-5.55,5.55-5.55h38.99c22.52,0,40.82,18.33,40.6,40.78Z"/>
  <path class="cls-4" d="M96.05,58.81c-2.45,12.7-10.87,17.23-20.72,17.99l-10.07-.17c-8.85,0-17.72,6.35-17.72,15.2v6.25H29.68v-6.25c0-18.71,15.23-33.93,33.94-33.91h0c6.32,.22,26.58-.7,32.43,.89Z"/>
  <path class="cls-1" d="M73.59,93.72c-6.79-.24-19.85,1.01-26.05-1.93,.02-8.35,6.43-15.22,14.6-15.95h11.55c12.36,0,22.76-9.69,23.05-21.99l17.96-.14c-.22,22.24-18.76,40.01-41.11,40.01Z"/>
</svg>