<?xml version="1.0" encoding="UTF-8"?>
<svg id="logosandtypes_com" data-name="logosandtypes com" xmlns="http://www.w3.org/2000/svg" viewBox="0 0 150 150">
  <defs>
    <style>
      .cls-1 {
        fill: #72adfa;
      }

      .cls-2 {
        fill: #152039;
      }

      .cls-3 {
        fill: none;
      }
    </style>
  </defs>
  <g id="Layer_3" data-name="Layer 3">
    <g id="Layer_2" data-name="Layer 2">
      <path id="Layer_3-2" data-name="Layer 3-2" class="cls-3" d="M0,0H150V150H0V0Z"/>
    </g>
  </g>
  <g>
    <path class="cls-1" d="M149.09,64.51c0-.19,0-.39,0-.58-2.53-7.28-9.94-12.24-17.66-11.74-1.54,.06-3.19,.36-4.64,.88-6.2,3.44-27.91,15.54-34.28,19.08,0,0,31.95,13.35,35.66,14.88,.13,0,.27-.02,.4-.02,11.41-.83,20.72-11.08,20.53-22.5Z"/>
    <path class="cls-1" d="M29.84,55.2c-9.66-.57-18.09,7.1-18.58,16.74v.12c-.12,2.37,.26,4.66,.99,6.74,0,.01,0,.03,.01,.04,1.11,3.13,3.06,5.86,5.64,7.92,5.54,1.22,9.79,.55,15.11-1.38,4.65-2.04,15.39-6.77,19.92-8.81l-.04,.08c.46-.2,1.99-.89,2.42-1.07-2.09,2.17-3.73,4.57-4.92,7.2l18.49-7.84c-9.42-5.18-24.93-13.73-34.38-18.9-1.46-.5-3.1-.8-4.65-.85Z"/>
    <path class="cls-1" d="M76.93,40.68c-7.03,.02-12.69,5.75-12.67,12.78,.02,7.03,5.71,12.73,12.74,12.71,7.03-.02,12.73-5.75,12.71-12.78-.02-7.03-5.75-12.73-12.78-12.71Z"/>
  </g>
  <g>
    <path class="cls-3" d="M28.72,47.99c-1.46-.51-3.1-.8-4.65-.85-9.72-.53-18.07,7.08-18.58,16.74v.12c-.53,9.64,7.15,18.17,16.82,18.53,3.19,.63,8.05-1.75,10.89-2.99,0,0,28.58-12.1,29.9-12.66-4.23-2.33-30.8-16.95-34.38-18.9Z"/>
    <path class="cls-3" d="M87.56,50.26c-.02-7.03-5.75-12.73-12.78-12.71-7.03,.02-12.69,5.75-12.67,12.78,.71,16.92,24.81,16.82,25.45-.07Z"/>
    <path class="cls-3" d="M65.4,81.6c-1.64,1.2-3.2,3.34-4.63,6.38l27.38-.07c-2.7-9.37-15.39-11.92-22.75-6.31Z"/>
    <path class="cls-3" d="M144.25,63.51c-.57-9.66-8.96-17.22-18.67-16.64-1.54,.06-3.19,.36-4.64,.88-3.71,2.05-29.9,16.65-34.28,19.08,0,0,31.2,13.04,36.22,15.11,1.5,.27,3.12,.46,4.65,.32,7.16-.32,13.46-5.15,15.76-11.84,.74-2.1,1.1-4.4,.97-6.78v-.12Z"/>
    <path class="cls-2" d="M149.08,63.94c-.27-12.57-11.26-22.68-23.81-21.88-2.19,.14-4.47,.5-6.49,1.37-4.1,2.22-20.94,11.64-25.33,14.08,4.07-9.77-1.15-21.55-10.51-25.5,.28-2.06,1.1-4.85,3.56-4.86l8.35-.02c4.79-.17,4.78-7.09-.02-7.24,0,0-8.35,.02-8.35,.02-7.44,.02-9.81,6.19-10.58,10.43-.72-.06-1.52-.06-2.26,0-.79-4.23-3.19-10.39-10.63-10.37l-8.35,.02c-4.8,.17-4.78,7.09,.02,7.23,0,0,8.35-.02,8.35-.02,2.47,0,3.3,2.79,3.59,4.84-9.44,4.05-14.41,15.72-10.42,25.55-4.5-2.48-21.15-11.71-25.36-13.95-2.03-.87-4.31-1.21-6.5-1.34C11.98,41.62,1.25,51.37,.68,63.68c-.73,11.99,8.67,22.75,20.62,23.62,4.81,.22,7.12-.32,11.71-1.92,4.69-2.06,21.85-9.61,22.3-9.8-7.84,7.78-9.46,21.38-4.56,31.09,6.52,10.92,14.28,19.69,22.64,27.36,9.23-6.72,17.23-14.88,23.9-24.52-3.5-1.68-7.04-3.35-10.58-4.99-8.41,8.52-24.57,6.22-26.45-6.71l40.46-.11c.49-9.09-2.1-17.63-8.2-23.08,1.06,.47,19.66,8.52,24.33,10.54,4.53,1.57,7.04,2.12,11.72,1.86,11.64-.86,21.01-11.44,20.52-23.08Zm-74.3-26.39c7.03-.02,12.76,5.68,12.78,12.71-.64,16.88-24.74,16.98-25.45,.07-.02-7.03,5.64-12.76,12.67-12.78Zm-41.58,42c-2.83,1.24-7.7,3.62-10.89,2.99-9.67-.36-17.35-8.9-16.82-18.53v-.12c.51-9.66,8.86-17.27,18.58-16.74,1.55,.05,3.19,.35,4.65,.85,3.58,1.95,30.14,16.57,34.38,18.9-1.31,.55-29.9,12.66-29.9,12.66Zm27.57,8.43c1.43-3.05,2.99-5.19,4.63-6.38,7.36-5.62,20.05-3.06,22.75,6.31l-27.38,.07Zm82.51-17.56c-2.3,6.68-8.6,11.52-15.76,11.84-1.53,.15-3.15-.05-4.65-.32-5.02-2.07-36.22-15.11-36.22-15.11,4.38-2.44,30.57-17.03,34.28-19.08,1.45-.51,3.1-.82,4.64-.88,9.71-.58,18.1,6.98,18.67,16.64v.12c.13,2.38-.23,4.69-.97,6.78Z"/>
  </g>
</svg>