<?xml version="1.0" encoding="UTF-8"?>
<svg id="logosandtypes_com" data-name="logosandtypes com" xmlns="http://www.w3.org/2000/svg" viewBox="0 0 150 150">
  <defs>
    <style>
      .cls-1 {
        fill: #fec43e;
      }

      .cls-2 {
        fill: none;
      }
    </style>
  </defs>
  <path class="cls-2" d="M0,0H150V150H0V0Z"/>
  <path class="cls-1" d="M33.57,77.63c-10.82,7.07-25.17,3.46-30.74-8.37-3.44-7.23-2.33-16.14,2.93-22.2,3.82-4.57,9.62-7.38,15.58-7.42,6.86-.03,21.49,0,21.49,0,0,0,8.77-4.95,12.53-7.26-5.06-3.02-10.12-5.97-15.23-8.89-2.66-1.51-3.05-5.58,0-7.32,1.32-.75,2.74-.71,4.08,.05,6.53,3.74,12.99,7.55,19.5,11.33,2.23-1.26,4.37-2.6,6.62-3.79,6.47-3.2,10.6,.95,16.05,3.87,6.54-3.83,13.05-7.51,19.53-11.38,2.15-1.19,4.78-.54,5.93,1.83,.86,1.77,.25,4.11-1.4,5.13-2.16,1.34-12.58,7.42-15.75,9.28,3.89,2.36,12.37,7.15,12.37,7.15,0,0,14.5-.04,21.45,0,3.96,.03,7.62,1.1,10.98,3.27,10.24,6.35,12.86,20.98,5.21,30.34-6.29,8.26-18.58,10.47-27.35,4.86-.25-.14-.52-.26-.94-.47,0,10.72-.01,21.39,0,32.11,0,2.78-.84,5.24-2.64,7.34-.87,1.02-1.98,1.76-3.13,2.43-6.24,3.65-30.34,17.73-31.98,18.4-3.09,1.28-6.14,.87-9-.76-6.34-3.65-26.06-15.22-29.6-17.32-.98-.58-2.01-1.15-2.86-1.89-2.13-1.87-3.45-4.22-3.49-7.11-.18-11.08,.04-22.14-.12-33.22Zm74.37,2.65s.08-4.36,.11-6.24c.01-.93-.4-1.53-1.18-1.98-3.9-2.26-7.78-4.53-11.67-6.79-6.39-3.68-12.75-7.42-19.1-11.15-.74-.44-1.49-.44-2.24,0-5.35,3.19-25.69,15.01-30.48,17.77-1.03,.6-1.48,1.4-1.47,2.58,.03,11.9,.04,23.79,.06,35.69,0,.86,.38,1.43,1.09,1.84,3.13,1.83,23.59,13.7,30.63,17.89,.96,.58,1.78,.51,2.71-.04,2.21-1.32,4.44-2.59,6.67-3.88,6.84-3.95,13.66-7.92,20.45-11.94,1.45-.86,3-1.58,4.38-2.78,.05-.57,.14-1.2,.14-1.82-.04-6.9-.05-20.7-.05-20.7H57.25v6.58c13.01,.01,26.01-.03,39.02,0,.67,0,1.41,.13,2.01,.42,1.54,.75,2.35,2.02,2.32,3.79-.03,1.79-.01,3.58-.01,5.37,0,1.49-.68,2.61-1.92,3.39-7.32,4.3-14.63,8.64-22.01,12.84-1.32,.72-2.7,.65-4-.1-2.28-1.31-16.59-9.66-21.48-12.51-1.47-.86-2.3-2.11-2.32-3.85-.08-7.83,0-15.66-.03-23.49-.07-2.09,.01-4.11,2.02-5.29,2.57-1.54,17.19-10.09,21.94-12.79,1.36-.76,2.74-.7,4.07,.07,3.67,2.11,17.46,10.15,20.68,12.07,2.5,1.45,2.94,2.15,3.17,5.08h7.22Zm-25.35-31.99s26.13,15.29,39.25,22.85c4.11,2.32,8.29,2.51,12.47,.21,8.62-4.45,8.59-17.09,.16-21.75-2.04-1.26-4.32-1.62-6.71-1.62-15.03,.02-45.17,.31-45.17,.31Zm-15.03-.23s-30.84,0-46.26-.06c-3.82,0-6.95,1.65-9.31,4.56-8.46,10.4,3.39,25.1,15.36,18.97,3.18-1.87,6.4-3.67,9.61-5.5,7.68-4.52,30.61-17.97,30.61-17.97Zm22.18,55.8l-30.04-.06,15.07,8.8,14.97-8.74Zm.11-64.26c.03-.05-10.62-6.46-13.24-8.02-1.05-.63-2.02-.77-3.13-.1-4.51,2.7-13.56,8.08-13.55,8.13h29.92Zm-.49,40.69l-14.61-8.78-14.69,8.78h29.3Z"/>
</svg>