<?xml version="1.0" encoding="UTF-8"?>
<svg id="logosandtypes_com" data-name="logosandtypes com" xmlns="http://www.w3.org/2000/svg" viewBox="0 0 150 150">
  <defs>
    <style>
      .cls-1 {
        fill: #131a2d;
      }

      .cls-2 {
        fill: none;
      }

      .cls-3 {
        fill: #fdd535;
      }
    </style>
  </defs>
  <path class="cls-2" d="M0,0H150V150H0V0Z"/>
  <path id="Path_54" data-name="Path 54" class="cls-1" d="M28.75,40.74c2.62-1.51,3.52-4.87,2.01-7.49-1.51-2.62-4.87-3.52-7.49-2.01-2.62,1.51-3.52,4.87-2.01,7.49,1.51,2.62,4.87,3.52,7.49,2.01Z"/>
  <path id="Path_55" data-name="Path 55" class="cls-1" d="M10.47,51.3c2.62-1.51,3.52-4.87,2.01-7.49-1.51-2.62-4.87-3.52-7.49-2.01-2.62,1.51-3.52,4.87-2.01,7.49,1.51,2.62,4.87,3.52,7.49,2.01Z"/>
  <path class="cls-1" d="M135.4,62.37c-4.01-5.17-9.46-9.04-15.67-11.1C126.17,22,92.24-.15,68.04,17.61c-10.72,7.4-18.45,18.38-21.81,30.96-.42,1.99-.96,4.96-3.69,3.81-5.88-3.02-12.2-5.18-18.69-6.41-2.62-.49-5.22,1-6.1,3.52-14.23,38.86,11.45,83.33,52.23,90.41,5.15,.98,6.71-4.53,7.62-8.47,1.25-4.68,2.01-9.48,2.27-14.32,.05-1.4,1.49-2.4,2.82-1.97,11.65,3.71,24.21,3.42,35.68-.83,22.07-5.89,31.43-34.11,17.04-51.95Z"/>
  <path class="cls-3" d="M110.97,79.05c-1.21-6.12-7.15-10.11-13.27-8.91l-9.55,1.87c-.82,.16-1.67-.05-2.33-.57-1.23-.99-1.43-2.78-.45-4.01,1.45-2.03,7.67-8.91,8.35-11.26,4.76-13.56-14.77-20.96-20.32-7.76,0,0-12.34,30.85-12.34,30.85-1.57,3.81,1.01,8.27,5.11,8.78h.11c1.87,.04,35.1,5.4,35.76,4.3,0,0,0,0,0,0,6.13-1.2,10.13-7.14,8.93-13.28h0Z"/>
</svg>